<svg width="24" height="24" viewBox="0 0 24 24" fill="none" xmlns="http://www.w3.org/2000/svg">
<g id="solar:bill-bold">
<path id="Vector" fill-rule="evenodd" clip-rule="evenodd" d="M2 1.25C1.80109 1.25 1.61032 1.32902 1.46967 1.46967C1.32902 1.61032 1.25 1.80109 1.25 2C1.25 2.19891 1.32902 2.38968 1.46967 2.53033C1.61032 2.67098 1.80109 2.75 2 2.75H4V12.277C4 13.617 4 14.287 4.268 14.878C4.536 15.469 5.04 15.91 6.049 16.793L8.049 18.543C9.932 20.19 10.873 21.013 12 21.013C13.127 21.013 14.069 20.19 15.951 18.543L17.951 16.793C18.959 15.91 19.464 15.469 19.731 14.878C20 14.288 20 13.618 20 12.278V2.75H22C22.1989 2.75 22.3897 2.67098 22.5303 2.53033C22.671 2.38968 22.75 2.19891 22.75 2C22.75 1.80109 22.671 1.61032 22.5303 1.46967C22.3897 1.32902 22.1989 1.25 22 1.25H2ZM8.5 12.25C8.30109 12.25 8.11032 12.329 7.96967 12.4697C7.82902 12.6103 7.75 12.8011 7.75 13C7.75 13.1989 7.82902 13.3897 7.96967 13.5303C8.11032 13.671 8.30109 13.75 8.5 13.75H15.5C15.6989 13.75 15.8897 13.671 16.0303 13.5303C16.171 13.3897 16.25 13.1989 16.25 13C16.25 12.8011 16.171 12.6103 16.0303 12.4697C15.8897 12.329 15.6989 12.25 15.5 12.25H8.5ZM7.75 8C7.75 7.80109 7.82902 7.61032 7.96967 7.46967C8.11032 7.32902 8.30109 7.25 8.5 7.25H15.5C15.6989 7.25 15.8897 7.32902 16.0303 7.46967C16.171 7.61032 16.25 7.80109 16.25 8C16.25 8.19891 16.171 8.38968 16.0303 8.53033C15.8897 8.67098 15.6989 8.75 15.5 8.75H8.5C8.30109 8.75 8.11032 8.67098 7.96967 8.53033C7.82902 8.38968 7.75 8.19891 7.75 8Z" fill="#850000"/>
</g>
</svg>
